<?xml version="1.0" encoding="iso-8859-1"?>
<!-- Generator: Adobe Illustrator 16.0.0, SVG Export Plug-In . SVG Version: 6.00 Build 0)  -->
<!DOCTYPE svg PUBLIC "-//W3C//DTD SVG 1.1//EN" "http://www.w3.org/Graphics/SVG/1.1/DTD/svg11.dtd">
<svg version="1.1" id="Capa_1" xmlns="http://www.w3.org/2000/svg" xmlns:xlink="http://www.w3.org/1999/xlink" x="0px" y="0px"
	 width="380px" height="380px" viewBox="0 0 380 380" style="enable-background:new 0 0 380 380;" xml:space="preserve">
<g>
	<g>
		<g>
			<path d="M341.15,125.013c2.725-2.671,3.354-6.824,1.541-10.182L283.09,4.491C281.601,1.725,278.707,0,275.56,0H104.441
				c-3.148,0-6.041,1.726-7.531,4.491l-59.602,110.34c-1.813,3.357-1.184,7.511,1.541,10.182l59.391,58.151
				c-17.515,20.844-28.085,47.706-28.085,76.992C70.155,326.241,123.92,380,190,380c66.08,0,119.842-53.759,119.842-119.844
				c0-29.286-10.566-56.148-28.084-76.992h0.003L341.15,125.013z M135.244,153.574l-46.313-46.05l35.418-65.577h131.305
				l35.418,65.577l-46.317,46.05c-16.421-8.471-35.037-13.26-54.752-13.26C170.284,140.314,151.668,145.104,135.244,153.574z
				 M190,344.62c-46.575,0-84.466-37.892-84.466-84.464c0-46.574,37.891-84.462,84.466-84.462c46.575,0,84.464,37.888,84.464,84.462
				C274.466,306.729,236.575,344.62,190,344.62z"/>
			<path d="M210.971,291.256h-8.771v-77.874c0-2.294-1.862-4.157-4.153-4.157h-11.438c-0.955,0-1.869,0.322-2.603,0.914
				l-17.575,14.177c-0.98,0.788-1.551,1.98-1.551,3.229v6.34c0,2.296,1.861,4.156,4.151,4.156h7.884v53.217H169.2
				c-2.29,0-4.154,1.854-4.154,4.154v11.523c0,2.291,1.864,4.155,4.154,4.155h41.771c2.288,0,4.146-1.864,4.146-4.155V295.41
				C215.118,293.109,213.259,291.256,210.971,291.256z"/>
		</g>
	</g>
</g>
<g>
</g>
<g>
</g>
<g>
</g>
<g>
</g>
<g>
</g>
<g>
</g>
<g>
</g>
<g>
</g>
<g>
</g>
<g>
</g>
<g>
</g>
<g>
</g>
<g>
</g>
<g>
</g>
<g>
</g>
</svg>
